<?xml version="1.0" ?><!DOCTYPE svg  PUBLIC '-//W3C//DTD SVG 1.1//EN'  'http://www.w3.org/Graphics/SVG/1.1/DTD/svg11.dtd'><svg height="512px" style="enable-background:new 0 0 512 512;" version="1.1" viewBox="0 0 512 512" width="512px" xml:space="preserve" xmlns="http://www.w3.org/2000/svg" xmlns:xlink="http://www.w3.org/1999/xlink"><g id="_x32_2_x2C__medicine_x2C__pill_x2C__tablet_x2C__treatment"><g id="XMLID_15658_"><path d="M199.186,390.002c-2.641-2.639-6.151-4.094-9.885-4.094c-3.734,0-7.245,1.455-9.885,4.094    c-5.451,5.452-5.451,14.321,0,19.771l19.77,19.77c2.64,2.641,6.151,4.095,9.885,4.095c3.733,0,7.244-1.454,9.885-4.095    c5.451-5.45,5.451-14.319,0-19.771L199.186,390.002z" id="XMLID_15659_"/><path d="M219.659,171.228c-3.734,0-7.245,1.454-9.885,4.095c-5.45,5.451-5.451,14.319,0,19.77    c2.641,2.641,6.151,4.095,9.885,4.095s7.245-1.454,9.885-4.095c2.641-2.641,4.095-6.15,4.095-9.885    c0-3.733-1.454-7.244-4.095-9.885C226.903,172.682,223.393,171.228,219.659,171.228z" id="XMLID_15660_"/><path d="M358.047,245.316c3.734,0,7.245-1.454,9.886-4.095c5.45-5.45,5.45-14.319,0-19.77    c-2.641-2.641-6.151-4.095-9.886-4.095c-3.733,0-7.244,1.454-9.885,4.095c-5.45,5.45-5.45,14.319,0,19.77    C350.803,243.862,354.313,245.316,358.047,245.316z" id="XMLID_15661_"/><path d="M265.788,153.058c3.734,0,7.245-1.454,9.886-4.095c5.45-5.451,5.45-14.319,0-19.771    c-2.641-2.64-6.151-4.094-9.886-4.094c-3.733,0-7.245,1.454-9.885,4.094c-5.451,5.451-5.451,14.319,0,19.771    C258.543,151.603,262.055,153.058,265.788,153.058z" id="XMLID_15662_"/><path d="M72.338,134.28c-5.645,0-10.862,1.863-15.07,5.007c1.004,0.118,1.979,0.542,2.75,1.313l31.228,31.229    c0.771,0.771,1.195,1.746,1.313,2.75c3.144-4.208,5.007-9.425,5.007-15.069C97.566,145.598,86.249,134.28,72.338,134.28z" id="XMLID_15663_"/><path d="M53.428,147.189c-0.771-0.771-1.194-1.745-1.313-2.75c-3.144,4.208-5.007,9.425-5.007,15.069    c0,13.911,11.318,25.229,25.229,25.229c5.645,0,10.861-1.864,15.069-5.008c-1.004-0.118-1.979-0.542-2.75-1.313L53.428,147.189z" id="XMLID_15664_"/><path d="M201.447,324.767c5.451-5.451,5.451-14.32,0-19.771c-2.641-2.641-6.151-4.095-9.885-4.095    c-3.734,0-7.245,1.454-9.885,4.095l-19.77,19.77c-2.641,2.641-4.095,6.151-4.095,9.886c0,3.733,1.454,7.244,4.095,9.885    c2.64,2.64,6.15,4.094,9.885,4.094c3.734,0,7.244-1.454,9.885-4.094L201.447,324.767z" id="XMLID_15665_"/><path d="M265.788,217.357c-3.733,0-7.245,1.454-9.885,4.095c-5.451,5.45-5.451,14.319,0,19.77    c2.64,2.64,6.151,4.095,9.885,4.095c3.734,0,7.245-1.454,9.886-4.095c5.449-5.45,5.449-14.319,0-19.77    C273.033,218.812,269.522,217.357,265.788,217.357z" id="XMLID_15666_"/><path d="M136.735,225.894c-4.208-3.145-9.425-5.008-15.07-5.008c-13.912,0-25.229,11.317-25.229,25.229    c0,5.645,1.864,10.861,5.008,15.07c0.118-1.005,0.542-1.979,1.312-2.751l31.229-31.229    C134.755,226.435,135.731,226.011,136.735,225.894z" id="XMLID_15667_"/><path d="M140.574,233.795l-31.229,31.229c-0.771,0.771-1.747,1.194-2.751,1.313    c4.208,3.144,9.426,5.007,15.07,5.007c13.912,0,25.229-11.318,25.229-25.229c0-5.645-1.863-10.861-5.007-15.069    C141.769,232.05,141.345,233.024,140.574,233.795z" id="XMLID_15668_"/><path d="M311.918,199.187c3.733,0,7.244-1.454,9.885-4.095s4.095-6.15,4.095-9.885    c0-3.733-1.454-7.244-4.095-9.885s-6.151-4.095-9.885-4.095c-3.734,0-7.244,1.454-9.886,4.095    c-2.64,2.641-4.094,6.151-4.094,9.885c0,3.734,1.454,7.244,4.094,9.885C304.674,197.732,308.184,199.187,311.918,199.187z" id="XMLID_15669_"/><path d="M456.567,270.547L272.707,86.688c-5.368-5.369-12.506-8.325-20.099-8.325s-14.731,2.956-20.099,8.325    l-65.241,65.241c-11.083,11.082-11.083,29.115,0,40.198l183.859,183.859c5.368,5.368,12.507,8.325,20.1,8.325    c7.592,0,14.73-2.957,20.099-8.325l65.241-65.24c5.368-5.369,8.324-12.507,8.324-20.1S461.936,275.915,456.567,270.547z     M358.047,208.038c6.224,0,12.075,2.423,16.476,6.823c9.085,9.085,9.085,23.866,0,32.95c-4.4,4.4-10.252,6.824-16.476,6.824    c-6.223,0-12.074-2.424-16.475-6.824c-9.084-9.084-9.084-23.865-0.001-32.949C345.973,210.461,351.824,208.038,358.047,208.038z     M311.918,161.908c6.223,0,12.074,2.424,16.475,6.824s6.824,10.251,6.824,16.475s-2.424,12.074-6.824,16.475    s-10.252,6.824-16.475,6.824c-6.224,0-12.074-2.424-16.475-6.824c-4.401-4.4-6.824-10.251-6.824-16.475s2.423-12.074,6.824-16.475    C299.844,164.332,305.694,161.908,311.918,161.908z M249.313,122.603c4.401-4.4,10.252-6.823,16.475-6.823    c6.224,0,12.074,2.423,16.475,6.823c9.085,9.084,9.085,23.866,0,32.95c-4.4,4.4-10.251,6.824-16.475,6.824    c-6.223,0-12.074-2.424-16.475-6.824C240.229,146.469,240.229,131.687,249.313,122.603z M219.659,208.506    c-6.224,0-12.074-2.424-16.475-6.824c-9.084-9.084-9.084-23.864,0-32.949c4.401-4.4,10.251-6.824,16.475-6.824    s12.074,2.424,16.475,6.824c4.4,4.4,6.824,10.251,6.824,16.475s-2.424,12.074-6.824,16.475    C231.733,206.082,225.882,208.506,219.659,208.506z M265.788,254.636c-6.223,0-12.074-2.424-16.475-6.824    c-9.084-9.084-9.084-23.865,0-32.95c4.401-4.4,10.252-6.823,16.475-6.823c6.224,0,12.074,2.423,16.475,6.823    c9.085,9.085,9.085,23.866,0,32.95C277.862,252.212,272.012,254.636,265.788,254.636z M311.918,300.767    c-6.224,0-12.074-2.424-16.475-6.825c-4.401-4.4-6.824-10.252-6.824-16.475c0-6.224,2.423-12.075,6.824-16.476    c4.4-4.4,10.251-6.824,16.475-6.824c6.223,0,12.074,2.424,16.475,6.824c9.084,9.084,9.084,23.866,0,32.95    C323.992,298.343,318.141,300.767,311.918,300.767z M374.522,340.07c-4.4,4.401-10.252,6.824-16.476,6.824    c-6.223,0-12.074-2.423-16.475-6.824c-9.084-9.084-9.084-23.864-0.001-32.948c4.401-4.401,10.253-6.825,16.476-6.825    c6.224,0,12.075,2.424,16.476,6.825c4.401,4.4,6.824,10.251,6.824,16.474C381.347,329.819,378.924,335.67,374.522,340.07z     M420.651,293.941c-4.4,4.401-10.252,6.825-16.475,6.825s-12.074-2.424-16.475-6.825c-9.084-9.084-9.084-23.866,0-32.95    c4.4-4.4,10.252-6.824,16.475-6.824s12.074,2.424,16.475,6.824c4.401,4.4,6.824,10.252,6.824,16.476    C427.476,283.689,425.053,289.541,420.651,293.941z" id="XMLID_15670_"/><path d="M358.047,309.616c-3.733,0-7.244,1.454-9.885,4.095c-5.45,5.451-5.45,14.319,0,19.771    c2.641,2.641,6.151,4.094,9.885,4.094c3.734,0,7.245-1.453,9.886-4.094c5.45-5.451,5.45-14.319,0-19.771    C365.292,311.07,361.781,309.616,358.047,309.616z" id="XMLID_15680_"/><path d="M404.177,263.487c-3.733,0-7.245,1.454-9.885,4.094c-5.451,5.45-5.451,14.32,0,19.771    c2.641,2.64,6.151,4.095,9.885,4.095s7.244-1.455,9.886-4.095c5.45-5.451,5.45-14.321,0-19.771    C411.422,264.941,407.91,263.487,404.177,263.487z" id="XMLID_15681_"/><path d="M311.918,263.487c-3.734,0-7.245,1.454-9.886,4.094c-5.45,5.45-5.45,14.32,0,19.771    c2.642,2.64,6.151,4.095,9.886,4.095c3.733,0,7.244-1.455,9.885-4.095c5.451-5.451,5.451-14.321,0-19.771    C319.163,264.941,315.651,263.487,311.918,263.487z" id="XMLID_15682_"/></g></g><g id="Layer_1"/></svg>